<?xml version="1.0" ?><!DOCTYPE svg  PUBLIC '-//W3C//DTD SVG 1.1//EN'  'http://www.w3.org/Graphics/SVG/1.1/DTD/svg11.dtd'><svg enable-background="new 0 0 32 32" height="32px" id="Layer_1" version="1.1" viewBox="0 0 512 512" width="32px" xml:space="preserve" xmlns="http://www.w3.org/2000/svg" xmlns:xlink="http://www.w3.org/1999/xlink"><g><path d="M429.06,198.142c0-95.577-77.479-173.06-173.061-173.06c-95.573,0-173.059,77.483-173.059,173.06    c0,40.994,14.241,78.615,38.051,108.264l-0.09,0.025l135.098,180.485l135.102-180.485l-0.084-0.025    C414.819,276.757,429.06,239.136,429.06,198.142 M255.999,314.27c-62.147,0-112.533-50.386-112.533-112.542    c0-62.148,50.386-112.53,112.533-112.53c62.156,0,112.534,50.382,112.534,112.53C368.533,263.884,318.155,314.27,255.999,314.27" fill="#FFFFFF"/><path d="M256,25.179v64.115c15.841,0.004,30.922,3.285,44.595,9.196c9.938,4.295,19.128,9.979,27.322,16.808    l0.068,0.057l0.008,0.008c24.754,20.642,40.5,51.709,40.5,86.458c0,34.751-15.751,65.824-40.498,86.468l-0.018,0.016l-0.058,0.048    c-8.197,6.83-17.386,12.517-27.33,16.812c-13.67,5.914-28.749,9.193-44.59,9.199v172.458l135.009-180.295l-0.059-0.027    c23.803-29.647,38.007-67.268,38.007-108.264C428.957,102.706,351.655,25.255,256,25.179" fill="#ffffff"/></g></svg>